<svg width="491.778" height="77" viewBox="0 0 491.778 77" xmlns="http://www.w3.org/2000/svg"><g id="svgGroup" stroke-linecap="round" fill-rule="evenodd" font-size="9pt" stroke="#000" stroke-width="0.25mm" fill="black" style="stroke:#000;stroke-width:0.25mm;fill:black"><path d="M 35.1 24.5 L 35.1 24.4 Q 35.1 23.607 35.73 23.443 A 1.473 1.473 0 0 1 36.1 23.4 A 1.619 1.619 0 0 1 36.478 23.44 Q 36.983 23.562 37.078 24.052 A 1.301 1.301 0 0 1 37.1 24.3 A 7.345 7.345 0 0 0 40.004 29.445 A 9.2 9.2 0 0 0 40.35 29.7 A 17.978 17.978 0 0 0 44.742 31.93 A 22.172 22.172 0 0 0 47.05 32.6 Q 50.9 33.5 54.2 33.5 Q 61.9 33.5 67.65 30.6 Q 73.4 27.7 76.55 23.35 Q 79.7 19 79.7 14.6 Q 79.7 11.2 77.65 8.35 A 11.186 11.186 0 0 0 75.113 5.847 Q 73.469 4.653 71.2 3.75 A 21.465 21.465 0 0 0 67.521 2.684 Q 65.618 2.299 63.381 2.131 A 49.16 49.16 0 0 0 59.7 2 A 46.247 46.247 0 0 0 48.641 3.39 A 56.038 56.038 0 0 0 44 4.75 Q 35.9 7.5 28.4 12.4 Q 20.9 17.3 14.95 23.8 A 55.356 55.356 0 0 0 6.005 36.794 A 52.046 52.046 0 0 0 5.5 37.85 Q 2 45.4 2 53.5 A 25.947 25.947 0 0 0 2.789 60.078 A 18.414 18.414 0 0 0 7.85 68.85 Q 13.7 74.5 23.4 74.5 Q 29.6 74.5 35.65 72.55 Q 41.7 70.6 46.6 66.75 Q 51.5 62.9 54.3 57.2 Q 54.53 56.741 54.848 55.93 A 39.296 39.296 0 0 0 55.05 55.4 Q 55.5 54.2 55.9 53 A 19.893 19.893 0 0 0 56.056 52.514 Q 56.259 51.848 56.293 51.519 A 1.162 1.162 0 0 0 56.3 51.4 Q 56.3 50.966 56.263 50.796 A 0.459 0.459 0 0 0 56.25 50.75 L 56.2 50.6 A 0.51 0.51 0 0 0 56.036 50.495 Q 55.874 50.426 55.612 50.407 A 2.967 2.967 0 0 0 55.4 50.4 A 3.106 3.106 0 0 0 54.379 50.56 A 2.55 2.55 0 0 0 53.1 51.55 A 9.33 9.33 0 0 0 52.217 53.144 A 11.786 11.786 0 0 0 51.8 54.25 Q 51.3 55.8 50.4 57 A 25.661 25.661 0 0 1 47.491 60.287 Q 45.976 61.743 44.095 63.149 A 43.745 43.745 0 0 1 43.55 63.55 Q 39.2 66.7 34.3 68.7 A 28.672 28.672 0 0 1 29.671 70.169 A 21.579 21.579 0 0 1 25 70.7 A 21.686 21.686 0 0 1 19.749 70.1 A 14.84 14.84 0 0 1 12.45 65.95 A 16.001 16.001 0 0 1 8.323 57.822 A 23.068 23.068 0 0 1 7.9 53.3 Q 7.9 46.5 11.1 39.6 A 55.459 55.459 0 0 1 18.307 28.11 A 63.036 63.036 0 0 1 19.65 26.5 Q 25 20.3 31.7 15.45 A 65.436 65.436 0 0 1 41.92 9.341 A 57.906 57.906 0 0 1 45.45 7.8 A 41.186 41.186 0 0 1 52.733 5.626 A 32.575 32.575 0 0 1 59 5 A 50.416 50.416 0 0 1 63.762 5.208 Q 69.803 5.784 72.85 7.95 A 12.494 12.494 0 0 1 74.994 9.845 Q 76.295 11.32 76.752 13.007 A 7.204 7.204 0 0 1 77 14.9 A 10.012 10.012 0 0 1 76.285 18.553 A 13.375 13.375 0 0 1 75.3 20.55 A 17.729 17.729 0 0 1 72.648 23.937 A 22.715 22.715 0 0 1 70.55 25.8 A 25.323 25.323 0 0 1 65.205 29.001 A 29.731 29.731 0 0 1 63.5 29.7 A 24.006 24.006 0 0 1 55.005 31.2 L 55 31.2 A 11.616 11.616 0 0 1 53.893 31.142 Q 52.744 31.031 51.212 30.711 A 41.352 41.352 0 0 1 50.7 30.6 A 34.83 34.83 0 0 1 45.937 29.167 A 38.798 38.798 0 0 1 45.25 28.9 A 17.391 17.391 0 0 1 42.568 27.562 A 13.86 13.86 0 0 1 40.6 26.1 Q 38.7 24.4 38.7 22.2 L 38.7 22 A 1.156 1.156 0 0 1 38.755 21.628 Q 38.93 21.113 39.664 21.101 A 2.163 2.163 0 0 1 39.7 21.1 Q 40.521 21.1 40.676 21.765 A 1.301 1.301 0 0 1 40.7 21.9 A 3.976 3.976 0 0 0 41.355 23.394 Q 41.825 24.071 42.6 24.7 Q 44.2 26 46.5 27.05 A 25.478 25.478 0 0 0 50.524 28.505 A 23.22 23.22 0 0 0 51.1 28.65 Q 52.756 29.046 54.048 29.157 A 11.158 11.158 0 0 0 55 29.2 Q 60.3 29.2 64.85 27 A 24.909 24.909 0 0 0 69.077 24.439 A 19.647 19.647 0 0 0 72.2 21.5 A 14.577 14.577 0 0 0 73.766 19.294 Q 75 17.125 75 15 A 5.535 5.535 0 0 0 73.713 11.482 Q 72.833 10.375 71.35 9.4 A 11.045 11.045 0 0 0 68.657 8.161 Q 65.863 7.262 61.605 7.059 A 54.866 54.866 0 0 0 59 7 A 31.95 31.95 0 0 0 51.221 8.003 A 41.488 41.488 0 0 0 46 9.7 A 57.844 57.844 0 0 0 35.214 15.408 A 66.202 66.202 0 0 0 32.8 17.1 Q 26.4 21.8 21.2 27.75 Q 16 33.7 12.95 40.3 A 33.833 33.833 0 0 0 10.505 47.561 A 27.954 27.954 0 0 0 9.9 53.3 A 19.846 19.846 0 0 0 10.46 58.145 A 13.974 13.974 0 0 0 13.9 64.5 A 13.139 13.139 0 0 0 20.77 68.269 A 19.652 19.652 0 0 0 25 68.7 Q 28 68.7 31.75 67.45 A 39.13 39.13 0 0 0 37.811 64.825 A 44.403 44.403 0 0 0 39.2 64.05 A 37.546 37.546 0 0 0 44.589 60.274 A 33.707 33.707 0 0 0 45.8 59.2 A 21.308 21.308 0 0 0 47.876 56.99 Q 49.188 55.363 49.9 53.7 Q 50.8 51.7 51.7 50.05 A 2.863 2.863 0 0 1 53.238 48.745 Q 53.776 48.535 54.461 48.453 A 7.915 7.915 0 0 1 55.4 48.4 A 4.022 4.022 0 0 1 56.565 48.554 Q 58.3 49.08 58.3 51.4 A 3.244 3.244 0 0 1 58.265 51.846 Q 58.198 52.327 58 53.011 A 17.304 17.304 0 0 1 57.85 53.5 Q 57.4 54.9 56.9 56.2 Q 56.4 57.5 56.1 58.1 Q 53.2 64.2 47.95 68.3 Q 42.7 72.4 36.3 74.45 Q 29.9 76.5 23.4 76.5 Q 16.5 76.5 11.2 73.7 Q 5.9 70.9 2.95 65.75 A 21.896 21.896 0 0 1 0.415 58.551 A 29.497 29.497 0 0 1 0 53.5 Q 0 45 3.6 37.05 Q 7.2 29.1 13.4 22.4 Q 19.6 15.7 27.35 10.65 Q 35.1 5.6 43.45 2.8 A 54.156 54.156 0 0 1 53.964 0.362 A 46.278 46.278 0 0 1 59.7 0 A 47.815 47.815 0 0 1 64.663 0.242 Q 67.15 0.503 69.256 1.042 A 22.088 22.088 0 0 1 72.3 2.05 A 21.457 21.457 0 0 1 75.594 3.754 Q 77.365 4.888 78.608 6.275 A 11.789 11.789 0 0 1 79.5 7.4 Q 81.8 10.7 81.8 14.6 A 15.346 15.346 0 0 1 80.731 20.15 A 18.999 18.999 0 0 1 79.9 22 A 20.48 20.48 0 0 1 76.461 26.781 A 25.576 25.576 0 0 1 74.35 28.75 A 27.047 27.047 0 0 1 68.719 32.342 A 33.437 33.437 0 0 1 65.6 33.65 Q 60.5 35.5 54.2 35.5 A 28.3 28.3 0 0 1 52.033 35.411 Q 50.895 35.324 49.62 35.15 A 53.009 53.009 0 0 1 48.6 35 Q 45.4 34.5 42.3 33.25 A 16.294 16.294 0 0 1 39.184 31.602 A 13.408 13.408 0 0 1 37.15 29.9 A 7.126 7.126 0 0 1 35.161 25.599 A 9.709 9.709 0 0 1 35.1 24.5 Z M 313.543 76.676 A 36.686 36.686 0 0 0 318.3 77 Q 326.8 77 334.8 73.95 Q 342.8 70.9 349.95 65.95 Q 357.1 61 363 55.1 Q 368.9 49.2 373.1 43.6 A 26.707 26.707 0 0 1 376.927 42.802 A 34.657 34.657 0 0 1 381.6 42.5 Q 384.2 42.5 386.9 42.9 A 30.971 30.971 0 0 1 388.549 43.189 A 26.013 26.013 0 0 1 391.9 44.1 A 20.115 20.115 0 0 1 393.938 44.879 Q 395.064 45.386 395.94 45.982 A 8.223 8.223 0 0 1 397.65 47.5 A 8.785 8.785 0 0 1 398.332 48.433 A 6.576 6.576 0 0 1 399.4 52 A 8.584 8.584 0 0 1 398.748 55.224 A 12.081 12.081 0 0 1 397.55 57.45 A 18.501 18.501 0 0 1 395.541 59.929 A 23.302 23.302 0 0 1 392.6 62.5 A 25.548 25.548 0 0 1 392.012 62.924 A 27.377 27.377 0 0 1 385.65 66.2 Q 381.8 67.6 377.8 67.6 Q 374.6 67.6 371.45 66.45 A 14.633 14.633 0 0 1 369.257 65.436 A 16.595 16.595 0 0 1 365.7 62.7 A 1.467 1.467 0 0 0 365.686 62.686 Q 365.276 62.287 364.798 62.457 A 1.18 1.18 0 0 0 364.6 62.55 A 1.991 1.991 0 0 0 364.464 62.637 Q 364.314 62.742 364.212 62.859 A 0.806 0.806 0 0 0 364 63.4 A 0.94 0.94 0 0 0 364.082 63.792 A 1.045 1.045 0 0 0 364.3 64.1 A 15.338 15.338 0 0 0 366.324 65.801 A 17.267 17.267 0 0 0 370.7 68 Q 374.5 69.3 378.7 69.3 Q 383 69.3 387.2 67.9 Q 391.4 66.5 394.8 63.75 A 18.297 18.297 0 0 0 395.627 63.04 A 18.845 18.845 0 0 0 400.1 56.8 Q 400.756 55.324 401.054 53.997 A 9.593 9.593 0 0 0 401.3 51.9 Q 401.3 48.2 398.75 45.85 A 16.159 16.159 0 0 0 396.299 43.995 A 19.409 19.409 0 0 0 392.5 42.2 A 29.176 29.176 0 0 0 391.188 41.814 A 33.406 33.406 0 0 0 387.15 41 Q 384.3 40.6 381.4 40.6 Q 376.4 40.6 372.3 41.7 A 4.17 4.17 0 0 1 372.244 41.755 Q 371.987 42.003 371.819 42.073 A 0.314 0.314 0 0 1 371.7 42.1 A 93.838 93.838 0 0 1 367.719 47.039 A 119.102 119.102 0 0 1 361.7 53.5 Q 355.9 59.3 348.95 64.15 Q 342 69 334.25 72 Q 326.5 75 318.3 75 Q 314.5 75 310.65 74.2 Q 306.8 73.4 303.6 71.7 A 17.176 17.176 0 0 1 302.631 71.145 A 14.456 14.456 0 0 1 298.45 67.3 Q 296.5 64.6 296.5 60.9 Q 296.5 55.5 299.45 50.65 A 30.555 30.555 0 0 1 301.369 47.859 A 34.365 34.365 0 0 1 307.25 41.95 Q 312.1 38.1 318 35.9 A 37.932 37.932 0 0 1 319.842 35.266 A 32.629 32.629 0 0 1 329.7 33.7 Q 331.075 33.7 333.088 33.937 A 63.474 63.474 0 0 1 335.05 34.2 Q 338.4 34.7 341.9 35.8 A 24.31 24.31 0 0 1 344.392 36.731 A 19.16 19.16 0 0 1 347.95 38.75 A 8.283 8.283 0 0 1 349.199 39.85 A 5.478 5.478 0 0 1 350.7 43.2 A 3.438 3.438 0 0 1 349.922 44.141 A 4.746 4.746 0 0 1 349.1 44.7 Q 348.381 43.263 346.475 41.851 A 19.429 19.429 0 0 0 344.8 40.75 Q 341.5 38.8 337.1 37.55 A 35.308 35.308 0 0 0 335.457 37.125 A 30.619 30.619 0 0 0 328.5 36.3 A 23.019 23.019 0 0 0 324.441 36.67 A 28.58 28.58 0 0 0 319.35 38.1 Q 314.6 39.9 310.5 43.1 A 30.892 30.892 0 0 0 310.246 43.301 A 27.309 27.309 0 0 0 303.85 50.5 Q 301.3 54.7 301.3 59.5 A 13.004 13.004 0 0 0 301.583 62.29 A 8.645 8.645 0 0 0 304.2 66.95 A 14.902 14.902 0 0 0 306.996 68.963 A 17.475 17.475 0 0 0 311.35 70.65 Q 315.6 71.7 319.8 71.7 A 24.767 24.767 0 0 0 324.403 71.259 A 30.7 30.7 0 0 0 330.15 69.55 A 52.548 52.548 0 0 0 333.489 68.07 A 60.963 60.963 0 0 0 340.8 63.85 Q 346.1 60.3 351 55.95 A 139.408 139.408 0 0 0 351.306 55.678 A 127.804 127.804 0 0 0 360.1 47.05 Q 364.3 42.5 367.4 38.5 Q 368.525 37.063 369.904 35.254 A 532.245 532.245 0 0 0 371.65 32.95 Q 374.1 29.7 376.75 26.25 Q 379.4 22.8 381.7 19.6 Q 384 16.4 385.5 14.2 A 1.835 1.835 0 0 0 385.585 14.06 Q 385.865 13.547 385.6 13.15 Q 385.3 12.7 384.8 12.7 Q 384.2 12.7 383.9 13.2 A 43.472 43.472 0 0 1 383.832 13.307 Q 382.443 15.475 380.15 18.5 Q 377.8 21.6 375.15 25.1 A 1727.263 1727.263 0 0 1 373.838 26.831 A 1520.833 1520.833 0 0 1 370.05 31.8 A 917.384 917.384 0 0 1 368.582 33.712 Q 367.88 34.624 367.242 35.449 A 489.432 489.432 0 0 1 365.8 37.3 Q 362.7 41.3 358.6 45.8 Q 354.5 50.3 349.7 54.55 Q 344.9 58.8 339.8 62.2 A 63.225 63.225 0 0 1 336.613 64.193 A 53.455 53.455 0 0 1 329.6 67.65 A 30.818 30.818 0 0 1 325.831 68.899 A 24.022 24.022 0 0 1 319.8 69.7 A 49.36 49.36 0 0 1 317.692 69.657 Q 313.085 69.46 310.054 68.369 A 11.042 11.042 0 0 1 307 66.75 A 12.423 12.423 0 0 1 306.007 65.894 A 8.576 8.576 0 0 1 303.2 59.5 A 12.823 12.823 0 0 1 303.865 55.499 A 17.542 17.542 0 0 1 305.3 52.3 A 24.019 24.019 0 0 1 307.17 49.494 A 28.524 28.524 0 0 1 311 45.45 Q 314.6 42.3 319.1 40.3 Q 323.6 38.3 328.5 38.3 Q 333 38.3 337.25 39.65 Q 339.641 40.41 341.589 41.296 A 25.289 25.289 0 0 1 344.35 42.75 Q 347.2 44.5 347.5 45.8 A 1.932 1.932 0 0 0 347.683 46.23 Q 347.865 46.538 348.147 46.679 A 1.215 1.215 0 0 0 348.7 46.8 Q 349.9 46.8 351.35 45.5 Q 352.707 44.284 352.707 43.331 A 1.309 1.309 0 0 0 352.7 43.2 A 7.169 7.169 0 0 0 351.7 39.917 A 8.299 8.299 0 0 0 349.85 37.8 A 18.574 18.574 0 0 0 347.113 35.925 A 23.587 23.587 0 0 0 343.4 34.25 A 46.816 46.816 0 0 0 342.925 34.084 A 42.432 42.432 0 0 0 335.85 32.3 A 62.813 62.813 0 0 0 333.535 31.971 Q 331.313 31.7 329.7 31.7 Q 323.5 31.7 317.25 34.05 Q 311 36.4 305.85 40.45 A 38.257 38.257 0 0 0 305.214 40.961 A 33.667 33.667 0 0 0 297.55 49.8 Q 294.4 55.1 294.4 61 Q 294.4 65.5 296.7 68.55 A 16.419 16.419 0 0 0 297.608 69.652 A 17.245 17.245 0 0 0 302.6 73.45 A 28.212 28.212 0 0 0 303.053 73.678 A 30.134 30.134 0 0 0 310.4 76.15 A 45.833 45.833 0 0 0 313.543 76.676 Z M 383.578 36.554 A 1.753 1.753 0 0 0 384 36.6 A 27.041 27.041 0 0 0 385.079 36.542 A 23.052 23.052 0 0 0 394.55 33.8 A 27.392 27.392 0 0 0 397.203 32.151 A 21.935 21.935 0 0 0 402.15 27.4 A 16.204 16.204 0 0 0 403.684 24.945 A 11.808 11.808 0 0 0 405 19.6 A 9.022 9.022 0 0 0 404.36 16.234 A 10.518 10.518 0 0 0 402.6 13.35 Q 400.2 10.5 394.8 8.7 A 29.511 29.511 0 0 0 390.674 7.675 Q 388.404 7.269 385.721 7.076 A 72.836 72.836 0 0 0 380.5 6.9 A 78.501 78.501 0 0 0 378.495 6.926 A 86.68 86.68 0 0 0 365.9 8.2 A 78.71 78.71 0 0 0 361.33 9.13 A 65.854 65.854 0 0 0 352.1 12 A 41.481 41.481 0 0 0 350.228 12.795 Q 347.921 13.844 346.047 15.064 A 21.685 21.685 0 0 0 342.3 18.1 Q 342 18.475 341.475 19.019 A 30.562 30.562 0 0 1 341.1 19.4 A 5.78 5.78 0 0 1 340.776 19.702 Q 340.195 20.2 339.8 20.2 A 0.941 0.941 0 0 1 339.762 20.199 Q 339.233 20.178 339.127 19.553 A 2.115 2.115 0 0 1 339.1 19.2 A 5.776 5.776 0 0 1 339.561 17 Q 339.931 16.097 340.598 15.164 A 14.778 14.778 0 0 1 342 13.5 Q 344.9 10.5 348.8 8.6 Q 352.119 7.025 356.165 5.909 A 65.146 65.146 0 0 1 362.9 4.45 Q 371.1 3.1 379.6 3.1 A 135.209 135.209 0 0 1 381.53 3.115 Q 383.781 3.147 386.6 3.25 Q 390.7 3.4 395.1 4.15 A 42.127 42.127 0 0 1 396.192 4.351 A 37.609 37.609 0 0 1 403.35 6.5 Q 407.2 8.1 409.6 10.9 A 9.622 9.622 0 0 1 411.634 14.907 A 13.226 13.226 0 0 1 412 18.1 A 16.061 16.061 0 0 1 411.484 22.155 A 17.944 17.944 0 0 1 409.1 27.45 Q 406.2 31.9 401.7 33.6 Q 401.391 33.755 401.241 33.989 A 0.928 0.928 0 0 0 401.1 34.5 A 2.163 2.163 0 0 0 401.101 34.536 Q 401.113 35.27 401.628 35.445 A 1.156 1.156 0 0 0 402 35.5 A 1.484 1.484 0 0 0 402.106 35.497 Q 402.319 35.481 402.4 35.4 A 15.325 15.325 0 0 0 404.153 34.615 A 16.732 16.732 0 0 0 408.2 31.6 A 19.107 19.107 0 0 0 408.281 31.519 A 19.825 19.825 0 0 0 412.35 25.45 Q 413.9 21.9 413.9 18 A 15.83 15.83 0 0 0 413.622 14.961 A 11.072 11.072 0 0 0 410.9 9.45 A 19.368 19.368 0 0 0 409.102 7.737 A 21.089 21.089 0 0 0 403.5 4.4 A 28.854 28.854 0 0 0 401.081 3.562 Q 397.749 2.562 393.25 1.95 A 88.313 88.313 0 0 0 388.429 1.432 A 107.738 107.738 0 0 0 379.8 1.1 Q 371.4 1.1 362.85 2.45 A 62.573 62.573 0 0 0 355.307 4.1 A 46.394 46.394 0 0 0 347.9 6.9 Q 345.2 8.2 342.7 10.15 A 20.87 20.87 0 0 0 341.3 11.343 A 17.218 17.218 0 0 0 338.65 14.45 Q 337.1 16.8 337.1 19.3 A 5.364 5.364 0 0 0 337.105 19.518 Q 337.124 19.983 337.225 20.38 A 2.852 2.852 0 0 0 337.7 21.4 Q 338.3 22.2 339.5 22.2 Q 340.6 22.2 341.45 21.6 Q 342.3 21 343 20.3 A 25.495 25.495 0 0 1 345.672 17.98 A 29.719 29.719 0 0 1 351 14.8 Q 355.7 12.6 361 11.3 Q 366.3 10 371.45 9.45 A 120.222 120.222 0 0 1 372.876 9.306 Q 377.163 8.9 380.6 8.9 Q 385.981 8.9 389.942 9.546 A 28.632 28.632 0 0 1 393.7 10.4 A 25.36 25.36 0 0 1 396.309 11.348 Q 397.66 11.93 398.72 12.614 A 10.214 10.214 0 0 1 400.8 14.35 A 10.123 10.123 0 0 1 401.603 15.364 A 7.496 7.496 0 0 1 403 19.7 Q 403 21.832 401.959 23.964 A 14.507 14.507 0 0 1 400.35 26.5 A 18.896 18.896 0 0 1 397.653 29.3 A 22.872 22.872 0 0 1 393.35 32.15 Q 389 34.4 383.9 34.6 A 1.473 1.473 0 0 0 383.53 34.643 Q 382.9 34.807 382.9 35.6 A 1.463 1.463 0 0 0 382.924 35.874 Q 383.028 36.417 383.578 36.554 Z M 214 37.3 L 222.6 37.3 Q 223.394 37.3 223.558 37.93 A 1.473 1.473 0 0 1 223.6 38.3 Q 223.6 39.094 222.971 39.258 A 1.473 1.473 0 0 1 222.6 39.3 L 214.5 39.3 Q 212.8 41.7 210.55 44.45 Q 208.3 47.2 206.25 49.7 Q 204.2 52.2 203.1 53.7 A 32.651 32.651 0 0 0 202.05 55.342 Q 201.577 56.136 201.226 56.851 A 13.819 13.819 0 0 0 200.7 58.05 A 13.048 13.048 0 0 0 200.277 59.361 Q 200.104 60.023 200.039 60.615 A 6.294 6.294 0 0 0 200 61.3 A 6.109 6.109 0 0 0 200.071 62.261 Q 200.154 62.778 200.332 63.199 A 3.03 3.03 0 0 0 200.6 63.7 A 3.916 3.916 0 0 0 203.438 65.624 A 5.81 5.81 0 0 0 204.4 65.7 A 8.596 8.596 0 0 0 207.373 65.147 Q 208.469 64.744 209.591 64.05 A 15.009 15.009 0 0 0 209.75 63.95 A 27.906 27.906 0 0 0 212.828 61.665 A 35.968 35.968 0 0 0 215.2 59.45 Q 217.9 56.7 220.1 53.7 A 1.004 1.004 0 0 1 220.419 53.416 Q 220.617 53.308 220.867 53.301 A 1.225 1.225 0 0 1 220.9 53.3 A 0.994 0.994 0 0 1 221.5 53.505 Q 221.637 53.606 221.764 53.756 A 2.03 2.03 0 0 1 221.8 53.8 A 0.877 0.877 0 0 1 221.921 53.997 Q 222.077 54.354 221.806 54.759 A 1.676 1.676 0 0 1 221.7 54.9 A 1.238 1.238 0 0 1 221.493 55.164 A 0.832 0.832 0 0 1 220.9 55.4 A 0.926 0.926 0 0 1 220.25 55.133 A 1.479 1.479 0 0 1 220.05 54.9 Q 219.724 54.434 220.05 53.88 A 1.707 1.707 0 0 1 220.1 53.8 Q 222.7 50 226.2 46.1 Q 229.7 42.2 234.15 39.55 Q 238.6 36.9 243.8 36.9 A 7.463 7.463 0 0 1 245.905 37.184 A 5.876 5.876 0 0 1 248.25 38.5 Q 250 40.1 250 43 A 9.377 9.377 0 0 1 249.185 46.772 A 12.207 12.207 0 0 1 248.35 48.35 A 21.628 21.628 0 0 1 245.075 52.392 A 24.992 24.992 0 0 1 244.15 53.25 A 22.929 22.929 0 0 1 239.33 56.544 A 21.316 21.316 0 0 1 238.7 56.85 A 16.764 16.764 0 0 1 236.511 57.699 Q 235.326 58.059 234.238 58.161 A 9.033 9.033 0 0 1 233.4 58.2 A 6.797 6.797 0 0 1 231.872 58.036 A 5.204 5.204 0 0 1 230.3 57.4 Q 229.7 57.1 229.7 56.6 A 0.998 0.998 0 0 1 230.009 55.875 A 1.468 1.468 0 0 1 230.15 55.75 Q 230.586 55.411 231.163 55.682 A 1.699 1.699 0 0 1 231.2 55.7 A 7.372 7.372 0 0 0 232.142 56.024 Q 232.661 56.162 233.137 56.192 A 4.165 4.165 0 0 0 233.4 56.2 A 8.285 8.285 0 0 0 235.457 55.926 Q 236.672 55.614 238 54.95 A 22.416 22.416 0 0 0 241.912 52.438 A 25.824 25.824 0 0 0 242.8 51.7 A 20.852 20.852 0 0 0 245.343 49.083 A 17.632 17.632 0 0 0 246.55 47.4 A 10.912 10.912 0 0 0 247.434 45.703 Q 247.859 44.66 247.965 43.661 A 6.251 6.251 0 0 0 248 43 Q 248 39.731 245.33 39.069 A 6.367 6.367 0 0 0 243.8 38.9 Q 239.1 38.9 235.05 41.35 Q 231 43.8 227.65 47.45 A 68.329 68.329 0 0 0 222.702 53.481 A 61.386 61.386 0 0 0 221.7 54.9 Q 218 60.1 213.3 63.9 A 22.31 22.31 0 0 1 210.412 65.904 Q 208.752 66.858 207.159 67.306 A 10.176 10.176 0 0 1 204.4 67.7 Q 200.7 67.7 198.9 64.8 Q 198.5 64 198.2 63.15 A 5.305 5.305 0 0 1 197.919 61.791 A 6.314 6.314 0 0 1 197.9 61.3 Q 197.9 59.979 198.414 58.325 A 17.179 17.179 0 0 1 198.75 57.35 A 16.344 16.344 0 0 1 199.695 55.315 Q 200.431 53.963 201.5 52.5 Q 202.494 51.055 204.304 48.834 A 122.25 122.25 0 0 1 204.7 48.35 Q 206.8 45.8 209.15 42.95 A 109.282 109.282 0 0 0 211.211 40.377 Q 212.161 39.15 212.972 38.021 A 65.623 65.623 0 0 0 213.2 37.7 A 0.089 0.089 0 0 1 213.223 37.646 Q 213.273 37.582 213.436 37.503 A 2.45 2.45 0 0 1 213.55 37.45 Q 213.835 37.328 213.954 37.306 A 0.254 0.254 0 0 1 214 37.3 Z M 126.211 67.554 A 4.504 4.504 0 0 0 127.4 67.7 A 6.018 6.018 0 0 0 129.275 67.396 Q 130.334 67.05 131.386 66.314 A 12.709 12.709 0 0 0 133.15 64.8 A 52.564 52.564 0 0 0 135.092 62.712 A 62.83 62.83 0 0 0 138.7 58.2 Q 141.4 54.4 144.05 50.1 A 352.832 352.832 0 0 1 144.4 49.534 Q 145.618 47.566 146.739 45.814 A 210.004 210.004 0 0 1 148.9 42.5 A 19.012 19.012 0 0 1 149.772 41.339 Q 150.329 40.656 150.881 40.133 A 8.082 8.082 0 0 1 152.05 39.2 Q 153.6 38.2 154.7 38.2 A 3.113 3.113 0 0 1 155.428 38.278 Q 156.339 38.498 156.598 39.337 A 2.592 2.592 0 0 1 156.7 40.1 A 3.073 3.073 0 0 1 156.453 41.288 A 4.298 4.298 0 0 1 156 42.1 Q 155 43.6 153.05 46.55 Q 151.1 49.5 149.15 52.85 Q 148.145 54.578 147.312 56.159 A 63.553 63.553 0 0 0 145.9 59 A 18.429 18.429 0 0 0 145.471 60.05 Q 144.7 62.118 144.7 63.8 A 5.653 5.653 0 0 0 144.815 64.968 A 3.968 3.968 0 0 0 145.55 66.6 A 2.51 2.51 0 0 0 146.242 67.217 Q 146.688 67.487 147.277 67.606 A 5.165 5.165 0 0 0 148.3 67.7 Q 149.613 67.7 151.184 67.162 A 15.795 15.795 0 0 0 152.9 66.45 A 26.309 26.309 0 0 0 154.86 65.401 A 31.868 31.868 0 0 0 158.1 63.2 Q 160.7 61.2 162.95 59 Q 165.2 56.8 166.5 54.9 Q 166.824 54.495 166.656 54.057 A 1.165 1.165 0 0 0 166.55 53.85 A 1.474 1.474 0 0 0 166.416 53.67 A 1.039 1.039 0 0 0 165.6 53.3 A 0.769 0.769 0 0 0 165.098 53.489 A 1.236 1.236 0 0 0 164.9 53.7 A 29.879 29.879 0 0 1 164.252 54.516 Q 163.681 55.212 163.002 55.962 A 55.079 55.079 0 0 1 161.6 57.45 Q 159.6 59.5 157.3 61.4 Q 155 63.3 152.75 64.5 A 13.597 13.597 0 0 1 151.808 64.959 Q 150.115 65.7 148.7 65.7 Q 147.146 65.7 146.799 64.492 A 2.879 2.879 0 0 1 146.7 63.7 A 5.294 5.294 0 0 1 146.725 63.199 Q 146.887 61.5 148.1 58.9 A 59.656 59.656 0 0 1 148.276 58.553 Q 149.526 56.091 151.3 53.15 A 212.682 212.682 0 0 1 152.478 51.221 A 179.864 179.864 0 0 1 155 47.25 A 1662.364 1662.364 0 0 1 155.279 46.825 Q 156.864 44.405 157.6 43.3 A 9.313 9.313 0 0 0 157.881 42.838 Q 158.24 42.205 158.442 41.6 A 4.728 4.728 0 0 0 158.7 40.1 A 4.895 4.895 0 0 0 158.697 39.929 A 3.673 3.673 0 0 0 157.55 37.3 A 3.814 3.814 0 0 0 155.979 36.389 A 4.818 4.818 0 0 0 154.6 36.2 A 4.847 4.847 0 0 0 153.76 36.276 Q 153.09 36.394 152.371 36.696 A 9.775 9.775 0 0 0 151.1 37.35 A 8.484 8.484 0 0 0 149.884 38.256 Q 148.592 39.397 147.3 41.3 A 111.81 111.81 0 0 0 146.832 42.036 Q 145.99 43.368 144.65 45.55 Q 142.9 48.4 140.65 51.85 Q 138.4 55.3 136 58.45 A 54.412 54.412 0 0 1 135.328 59.314 Q 134.325 60.578 133.348 61.646 A 31.195 31.195 0 0 1 131.35 63.65 Q 129.1 65.7 127.4 65.7 A 1.434 1.434 0 0 1 126.347 65.27 A 2.097 2.097 0 0 1 126 64.8 Q 125.5 63.9 125.5 62.5 A 7.801 7.801 0 0 1 125.695 60.824 Q 126.067 59.135 127.15 57.1 A 32.119 32.119 0 0 1 128.514 54.782 A 38.645 38.645 0 0 1 131.35 50.95 A 32.748 32.748 0 0 1 133.62 48.492 A 25.478 25.478 0 0 1 136.65 45.95 A 13.273 13.273 0 0 1 137.899 45.16 Q 139.912 44.047 141.6 44.2 Q 142.1 44.3 142.4 43.95 A 1.451 1.451 0 0 0 142.528 43.778 A 1.069 1.069 0 0 0 142.7 43.2 A 1.386 1.386 0 0 0 142.7 43.16 Q 142.672 42.2 141.3 42.2 A 7.53 7.53 0 0 0 139.904 42.333 Q 137.737 42.742 135.4 44.4 A 26.941 26.941 0 0 0 133.131 46.205 A 31.912 31.912 0 0 0 129.6 49.9 A 40.893 40.893 0 0 0 128.01 51.973 A 34.243 34.243 0 0 0 125.2 56.6 Q 123.5 60 123.5 62.5 Q 123.5 63.8 124.25 65.75 A 3.849 3.849 0 0 0 124.272 65.805 Q 124.823 67.175 126.211 67.554 Z M 106.1 66.7 Q 104.4 66.7 103.15 65.6 A 3.614 3.614 0 0 1 101.944 63.285 A 5.154 5.154 0 0 1 101.9 62.6 A 4 4 0 0 1 102.015 61.71 Q 102.308 60.441 103.35 58.5 Q 104.8 55.8 106.65 52.65 Q 108.5 49.5 109.95 46.85 A 24.951 24.951 0 0 0 110.55 45.688 Q 111.4 43.919 111.4 43 A 4.282 4.282 0 0 0 111.103 41.371 Q 110.639 40.231 109.45 39.5 A 8.135 8.135 0 0 0 105.692 38.324 A 9.961 9.961 0 0 0 105 38.3 A 15.015 15.015 0 0 0 99.538 39.359 A 18.88 18.88 0 0 0 97.4 40.35 Q 93.6 42.4 90.35 45.4 Q 87.1 48.4 84.7 51.4 A 1.004 1.004 0 0 1 84.381 51.684 Q 84.183 51.793 83.934 51.8 A 1.225 1.225 0 0 1 83.9 51.8 A 0.863 0.863 0 0 1 83.309 51.563 Q 83.171 51.439 83.05 51.25 A 1.025 1.025 0 0 1 82.957 51.068 Q 82.784 50.617 83.2 50.2 A 57.768 57.768 0 0 1 85.772 47.309 Q 87.084 45.924 88.61 44.468 A 94.612 94.612 0 0 1 89.05 44.05 Q 92.5 40.8 96.6 38.55 A 18.2 18.2 0 0 1 101.803 36.617 A 16.285 16.285 0 0 1 105 36.3 A 11.088 11.088 0 0 1 107.487 36.594 A 13.693 13.693 0 0 1 108.75 36.95 Q 110.7 37.6 112.05 39.1 A 5.158 5.158 0 0 1 113.281 41.655 A 7.282 7.282 0 0 1 113.4 43 A 4.475 4.475 0 0 1 113.286 43.947 Q 112.992 45.288 111.95 47.3 Q 110.5 50.1 108.65 53.25 A 559.6 559.6 0 0 0 106.926 56.206 Q 106.087 57.655 105.35 58.95 A 25.137 25.137 0 0 0 104.785 59.996 Q 103.972 61.6 103.906 62.455 A 1.891 1.891 0 0 0 103.9 62.6 A 2.878 2.878 0 0 0 104.013 63.444 Q 104.298 64.371 105.3 64.614 A 3.408 3.408 0 0 0 106.1 64.7 A 6.045 6.045 0 0 0 108.375 64.231 Q 109.223 63.889 110.095 63.296 A 12.826 12.826 0 0 0 110.9 62.7 A 32.063 32.063 0 0 0 115.011 58.743 A 36.083 36.083 0 0 0 115.6 58.05 Q 117.8 55.4 119 53.7 A 1.236 1.236 0 0 1 119.198 53.489 A 0.769 0.769 0 0 1 119.7 53.3 A 1.055 1.055 0 0 1 120.247 53.458 Q 120.402 53.551 120.551 53.697 A 2.243 2.243 0 0 1 120.65 53.8 A 0.949 0.949 0 0 1 120.78 53.981 Q 120.982 54.352 120.696 54.774 A 1.593 1.593 0 0 1 120.6 54.9 A 1.238 1.238 0 0 1 120.393 55.164 A 0.832 0.832 0 0 1 119.8 55.4 A 0.926 0.926 0 0 1 119.15 55.133 A 1.479 1.479 0 0 1 118.95 54.9 Q 118.624 54.434 118.95 53.88 A 1.707 1.707 0 0 1 119 53.8 Q 120.7 51.4 122.95 48.55 Q 125.2 45.7 128 43.15 Q 130.8 40.6 134 38.95 Q 137.2 37.3 140.7 37.3 Q 141.8 37.3 142.9 37.55 Q 144 37.8 145 38.2 A 1.297 1.297 0 0 1 145.31 38.411 A 0.904 0.904 0 0 1 145.6 39.1 Q 145.6 39.463 145.271 39.785 A 1.751 1.751 0 0 1 145.2 39.85 A 0.869 0.869 0 0 1 144.61 40.073 Q 144.418 40.073 144.2 40 L 143.9 39.9 Q 143.6 39.8 143.1 39.7 A 5.001 5.001 0 0 0 142.374 39.475 A 6.031 6.031 0 0 0 142 39.4 A 7.317 7.317 0 0 0 141.211 39.314 A 9.044 9.044 0 0 0 140.7 39.3 A 13.437 13.437 0 0 0 133.831 41.214 A 16.636 16.636 0 0 0 132.9 41.8 A 35.089 35.089 0 0 0 126.846 47.017 A 39.491 39.491 0 0 0 126.05 47.9 A 79.37 79.37 0 0 0 122.775 51.887 A 63.055 63.055 0 0 0 120.6 54.9 A 48.053 48.053 0 0 1 119.471 56.441 Q 118.914 57.174 118.258 57.989 A 106.099 106.099 0 0 1 116.85 59.7 Q 114.5 62.5 111.7 64.6 A 11.965 11.965 0 0 1 109.556 65.9 Q 107.99 66.625 106.424 66.693 A 7.473 7.473 0 0 1 106.1 66.7 Z M 70.659 55.189 A 0.806 0.806 0 0 0 71.2 55.4 A 1.225 1.225 0 0 0 71.234 55.4 Q 71.483 55.393 71.681 55.284 A 1.004 1.004 0 0 0 72 55 Q 74.3 52.3 77.65 48.2 Q 81 44.1 85.05 39.35 Q 89.1 34.6 93.55 29.9 Q 98 25.2 102.5 21.3 A 67.424 67.424 0 0 1 102.518 21.285 Q 107.009 17.396 111.25 15.05 Q 113.384 13.871 115.378 13.283 A 13.508 13.508 0 0 1 119.2 12.7 Q 121 12.7 122.85 13.65 Q 123.674 14.073 124.131 14.586 A 2.076 2.076 0 0 1 124.7 16 Q 124.7 17.086 123.738 17.42 A 2.723 2.723 0 0 1 123.1 17.55 Q 121.5 17.7 120.6 17.7 Q 117.2 17.7 113.7 19.35 A 31.437 31.437 0 0 0 112.397 20.002 A 34.75 34.75 0 0 0 106.95 23.6 Q 103.7 26.2 101.05 29.05 Q 99.56 30.653 98.338 32.114 A 52.823 52.823 0 0 0 96.6 34.3 A 1.707 1.707 0 0 0 96.55 34.38 Q 96.224 34.934 96.55 35.4 A 1.479 1.479 0 0 0 96.75 35.633 A 0.926 0.926 0 0 0 97.4 35.9 A 1.225 1.225 0 0 0 97.434 35.9 Q 97.683 35.893 97.881 35.784 A 1.004 1.004 0 0 0 98.2 35.5 A 42.926 42.926 0 0 1 98.443 35.18 Q 99.304 34.054 100.339 32.851 A 72.114 72.114 0 0 1 102.6 30.35 Q 105.2 27.6 108.2 25.2 A 36.597 36.597 0 0 1 109.143 24.471 A 32.262 32.262 0 0 1 114.4 21.25 A 16.982 16.982 0 0 1 116.772 20.306 A 12.887 12.887 0 0 1 120.6 19.7 A 17.338 17.338 0 0 0 121.174 19.691 A 19.632 19.632 0 0 0 123.3 19.5 A 6.126 6.126 0 0 0 123.996 19.361 A 4.882 4.882 0 0 0 125.7 18.55 Q 126.7 17.8 126.7 16 A 5.314 5.314 0 0 0 126.681 15.543 A 3.755 3.755 0 0 0 125.3 12.85 Q 123.9 11.7 122.15 11.2 Q 121.043 10.884 120.156 10.768 A 7.39 7.39 0 0 0 119.2 10.7 A 13.806 13.806 0 0 0 118.585 10.714 Q 114.86 10.88 110.75 13.05 Q 106.3 15.4 101.7 19.3 A 105.087 105.087 0 0 0 99.406 21.303 A 118.679 118.679 0 0 0 92.6 27.95 Q 88.1 32.7 83.95 37.55 Q 79.8 42.4 76.35 46.65 Q 74.194 49.306 72.409 51.396 A 140.071 140.071 0 0 1 70.4 53.7 A 1.125 1.125 0 0 0 70.306 53.837 Q 70.048 54.281 70.35 54.8 A 1.991 1.991 0 0 0 70.437 54.936 Q 70.542 55.087 70.659 55.189 Z M 231.1 67.5 Q 228.4 67.5 226.15 66.1 A 4.535 4.535 0 0 1 224.131 63.273 Q 223.9 62.389 223.9 61.3 Q 223.9 58.5 225.95 55.3 A 32.689 32.689 0 0 1 229.242 51.018 A 38.799 38.799 0 0 1 231.05 49.15 Q 234.1 46.2 237.3 44 A 34.074 34.074 0 0 1 239.212 42.772 Q 241.219 41.581 242.8 41.1 A 0.319 0.319 0 0 0 242.857 41.096 Q 242.887 41.09 242.912 41.078 A 0.148 0.148 0 0 0 242.95 41.05 Q 242.992 41.009 243.067 41.002 A 0.352 0.352 0 0 1 243.1 41 A 1.297 1.297 0 0 1 243.513 41.06 Q 244.089 41.254 244.1 42.069 A 2.37 2.37 0 0 1 244.1 42.1 Q 244.1 42.7 243.4 43 A 12.397 12.397 0 0 0 241.799 43.647 Q 240.186 44.422 238.25 45.8 A 49.143 49.143 0 0 0 233.881 49.316 A 56.351 56.351 0 0 0 232.45 50.65 A 37.307 37.307 0 0 0 229.632 53.673 A 29.074 29.074 0 0 0 227.75 56.2 Q 226.483 58.118 226.084 59.802 A 6.488 6.488 0 0 0 225.9 61.3 A 5.249 5.249 0 0 0 226.035 62.529 A 3.213 3.213 0 0 0 227.35 64.5 A 5.359 5.359 0 0 0 229.116 65.277 Q 229.845 65.458 230.699 65.492 A 10.075 10.075 0 0 0 231.1 65.5 A 23.976 23.976 0 0 0 239.237 64.028 A 30.739 30.739 0 0 0 243.05 62.35 Q 249.1 59.2 253.4 53.6 A 1.236 1.236 0 0 1 253.598 53.389 A 0.769 0.769 0 0 1 254.1 53.2 A 1.039 1.039 0 0 1 254.916 53.57 A 1.474 1.474 0 0 1 255.05 53.75 Q 255.368 54.25 254.985 54.79 A 1.773 1.773 0 0 1 254.9 54.9 A 1.004 1.004 0 0 1 254.581 55.184 Q 254.383 55.293 254.134 55.3 A 1.225 1.225 0 0 1 254.1 55.3 A 0.926 0.926 0 0 1 253.45 55.033 A 1.479 1.479 0 0 1 253.25 54.8 Q 252.924 54.334 253.25 53.78 A 1.707 1.707 0 0 1 253.3 53.7 A 74.029 74.029 0 0 0 256.156 49.696 A 89.402 89.402 0 0 0 257.85 47.05 Q 260.1 43.4 261.75 40.25 Q 263.4 37.1 264 35.7 Q 265.6 31.8 267.8 30.15 A 10.207 10.207 0 0 1 269.272 29.219 Q 270.68 28.5 272 28.5 Q 274.2 28.5 275.75 30 A 5.021 5.021 0 0 1 277.297 33.586 A 6.663 6.663 0 0 1 277.3 33.8 A 4.689 4.689 0 0 1 277.206 34.696 Q 277.025 35.619 276.5 36.8 A 1.297 1.297 0 0 1 276.29 37.11 A 0.904 0.904 0 0 1 275.6 37.4 A 1.076 1.076 0 0 1 274.8 37.055 A 1.444 1.444 0 0 1 274.75 37 Q 274.423 36.626 274.664 36.078 A 1.708 1.708 0 0 1 274.7 36 A 8.084 8.084 0 0 0 274.985 35.211 Q 275.109 34.795 275.162 34.422 A 3.742 3.742 0 0 0 275.2 33.9 Q 275.2 32.5 274.3 31.5 A 2.93 2.93 0 0 0 272.173 30.504 A 3.794 3.794 0 0 0 272 30.5 A 3.704 3.704 0 0 0 270.586 30.798 Q 270.057 31.015 269.511 31.391 A 8.364 8.364 0 0 0 268.85 31.9 Q 267.2 33.3 265.8 36.5 Q 265.248 37.882 263.762 40.705 A 141.27 141.27 0 0 1 263.5 41.2 Q 261.8 44.4 259.5 48.1 Q 257.2 51.8 254.9 54.9 Q 250.4 60.7 243.95 64.1 A 30.356 30.356 0 0 1 237.136 66.747 A 24.887 24.887 0 0 1 231.1 67.5 Z M 439 60.3 Q 435.7 60.3 433.3 58.3 A 6.533 6.533 0 0 1 430.921 53.525 A 9.104 9.104 0 0 1 430.9 52.9 A 9.333 9.333 0 0 1 431.034 51.362 A 11.752 11.752 0 0 1 431.25 50.35 Q 431.6 49 432.3 47.5 A 1.297 1.297 0 0 1 432.511 47.19 A 0.904 0.904 0 0 1 433.2 46.9 A 1.076 1.076 0 0 1 434 47.246 A 1.444 1.444 0 0 1 434.05 47.3 Q 434.377 47.674 434.137 48.223 A 1.708 1.708 0 0 1 434.1 48.3 A 11.608 11.608 0 0 0 433.562 49.547 A 8.937 8.937 0 0 0 433.25 50.6 Q 433 51.7 433 52.7 A 6.484 6.484 0 0 0 433.213 54.409 A 4.613 4.613 0 0 0 434.8 56.85 A 6.539 6.539 0 0 0 438.638 58.288 A 8.296 8.296 0 0 0 439.1 58.3 A 9.616 9.616 0 0 0 442.031 57.827 A 12.282 12.282 0 0 0 443.6 57.2 A 10.772 10.772 0 0 0 446.19 55.436 A 14.434 14.434 0 0 0 447.8 53.7 A 154.684 154.684 0 0 0 450.165 50.091 Q 451.575 47.869 452.7 45.9 Q 454.489 42.769 455.718 40.679 A 243.322 243.322 0 0 1 456 40.2 A 20.45 20.45 0 0 1 457.077 38.439 Q 457.668 37.58 458.277 36.927 A 8.207 8.207 0 0 1 459.55 35.8 A 8.995 8.995 0 0 1 460.765 35.074 Q 461.938 34.5 463 34.5 A 4.619 4.619 0 0 1 466.403 35.968 A 6.466 6.466 0 0 1 466.75 36.35 A 6.954 6.954 0 0 1 468.241 39.56 A 9.362 9.362 0 0 1 468.4 41 A 4.651 4.651 0 0 0 468.411 41.281 Q 468.455 41.985 468.682 43.668 A 117.554 117.554 0 0 0 468.7 43.8 A 67.011 67.011 0 0 0 468.967 45.57 Q 469.096 46.357 469.255 47.227 A 129.195 129.195 0 0 0 469.6 49.05 A 55.959 55.959 0 0 0 470.956 54.464 A 61.477 61.477 0 0 0 471.2 55.25 A 35.474 35.474 0 0 0 472.685 59.148 A 30.004 30.004 0 0 0 473.6 61 Q 474.242 62.212 474.985 62.941 A 4.505 4.505 0 0 0 475.6 63.45 A 4.423 4.423 0 0 0 476.761 64.024 A 3.764 3.764 0 0 0 477.9 64.2 A 5.87 5.87 0 0 0 480.34 63.644 Q 481.44 63.146 482.55 62.2 Q 484.9 60.2 486.85 57.7 Q 488.343 55.786 489.338 54.458 A 93.161 93.161 0 0 0 489.9 53.7 A 1.004 1.004 0 0 1 490.219 53.416 Q 490.417 53.308 490.667 53.301 A 1.225 1.225 0 0 1 490.7 53.3 A 0.994 0.994 0 0 1 491.3 53.505 Q 491.437 53.606 491.564 53.756 A 2.03 2.03 0 0 1 491.6 53.8 A 0.877 0.877 0 0 1 491.721 53.997 Q 491.877 54.354 491.606 54.759 A 1.676 1.676 0 0 1 491.5 54.9 Q 490.17 56.611 488.072 59.134 A 313.187 313.187 0 0 1 487.85 59.4 Q 485.6 62.1 482.95 64.2 A 11.147 11.147 0 0 1 480.956 65.48 Q 479.288 66.3 477.6 66.3 A 5.147 5.147 0 0 1 475.007 65.588 A 6.454 6.454 0 0 1 474.55 65.3 A 6.698 6.698 0 0 1 473.44 64.321 Q 472.592 63.402 471.8 62 A 28.428 28.428 0 0 1 470.01 58.079 A 34.387 34.387 0 0 1 469.3 55.95 Q 468.3 52.6 467.65 49.45 A 108.271 108.271 0 0 1 467.212 47.214 Q 467.009 46.116 466.86 45.154 A 52.077 52.077 0 0 1 466.7 44.05 Q 466.443 42.122 466.406 41.332 A 5.06 5.06 0 0 1 466.4 41.1 A 7.496 7.496 0 0 0 466.18 39.594 Q 465.926 38.613 465.394 37.861 A 4.722 4.722 0 0 0 465.35 37.8 A 3.634 3.634 0 0 0 464.644 37.06 A 2.619 2.619 0 0 0 463 36.5 Q 462.088 36.5 460.842 37.375 A 9.501 9.501 0 0 0 460.6 37.55 A 6.522 6.522 0 0 0 459.649 38.443 Q 458.724 39.484 457.8 41.2 Q 456.637 43.168 454.834 46.176 A 1831.24 1831.24 0 0 1 454.4 46.9 Q 452.596 49.908 450.2 53.654 A 416.681 416.681 0 0 1 449.4 54.9 A 1.04 1.04 0 0 0 449.518 54.719 Q 449.682 54.393 449.518 54.046 A 1.23 1.23 0 0 0 449.4 53.85 A 2.089 2.089 0 0 0 449.314 53.739 Q 449.187 53.588 449.052 53.489 A 0.919 0.919 0 0 0 448.5 53.3 A 0.769 0.769 0 0 0 447.998 53.489 A 1.236 1.236 0 0 0 447.8 53.7 A 1.707 1.707 0 0 0 447.75 53.78 Q 447.424 54.334 447.75 54.8 A 1.459 1.459 0 0 0 447.793 54.858 Q 447.971 55.087 448.208 55.198 A 1.153 1.153 0 0 0 448.7 55.3 A 0.769 0.769 0 0 0 449.203 55.111 A 1.236 1.236 0 0 0 449.4 54.9 Q 447.1 57.7 444.35 59 Q 441.6 60.3 439 60.3 Z M 186.4 37.3 L 195 37.3 Q 195.794 37.3 195.958 37.93 A 1.473 1.473 0 0 1 196 38.3 Q 196 39.094 195.371 39.258 A 1.473 1.473 0 0 1 195 39.3 L 186.9 39.3 Q 185.2 41.7 182.95 44.45 Q 180.7 47.2 178.65 49.7 Q 176.6 52.2 175.5 53.7 A 32.651 32.651 0 0 0 174.45 55.342 Q 173.977 56.136 173.626 56.851 A 13.819 13.819 0 0 0 173.1 58.05 A 13.048 13.048 0 0 0 172.677 59.361 Q 172.504 60.023 172.439 60.615 A 6.294 6.294 0 0 0 172.4 61.3 A 6.109 6.109 0 0 0 172.471 62.261 Q 172.554 62.778 172.732 63.199 A 3.03 3.03 0 0 0 173 63.7 A 3.916 3.916 0 0 0 175.838 65.624 A 5.81 5.81 0 0 0 176.8 65.7 A 8.596 8.596 0 0 0 179.773 65.147 Q 180.869 64.744 181.991 64.05 A 15.009 15.009 0 0 0 182.15 63.95 A 27.906 27.906 0 0 0 185.228 61.665 A 35.968 35.968 0 0 0 187.6 59.45 Q 190.3 56.7 192.5 53.7 A 1.004 1.004 0 0 1 192.819 53.416 Q 193.017 53.308 193.267 53.301 A 1.225 1.225 0 0 1 193.3 53.3 A 0.994 0.994 0 0 1 193.9 53.505 Q 194.037 53.606 194.164 53.756 A 2.03 2.03 0 0 1 194.2 53.8 A 0.877 0.877 0 0 1 194.321 53.997 Q 194.477 54.354 194.206 54.759 A 1.676 1.676 0 0 1 194.1 54.9 A 134.317 134.317 0 0 0 194.288 54.68 Q 197.11 51.357 200.4 47.05 Q 203.8 42.6 207.2 37.8 Q 207.524 37.395 207.356 36.957 A 1.165 1.165 0 0 0 207.25 36.75 A 1.474 1.474 0 0 0 207.116 36.57 A 1.039 1.039 0 0 0 206.3 36.2 A 0.769 0.769 0 0 0 205.798 36.389 A 1.236 1.236 0 0 0 205.6 36.6 A 298.388 298.388 0 0 1 205.388 36.9 A 274.492 274.492 0 0 1 198.8 45.8 A 542.317 542.317 0 0 1 196.753 48.433 Q 194.588 51.2 192.8 53.4 A 7.834 7.834 0 0 0 192.73 53.501 Q 192.416 53.955 192.331 54.225 A 0.598 0.598 0 0 0 192.3 54.4 A 1.326 1.326 0 0 0 192.339 54.734 Q 192.445 55.141 192.844 55.256 A 1.296 1.296 0 0 0 193.2 55.3 A 1.16 1.16 0 0 0 193.759 55.159 A 1.474 1.474 0 0 0 194.1 54.9 Q 190.4 60.1 185.7 63.9 A 22.31 22.31 0 0 1 182.812 65.904 Q 181.152 66.858 179.559 67.306 A 10.176 10.176 0 0 1 176.8 67.7 Q 173.1 67.7 171.3 64.8 Q 170.9 64 170.6 63.15 A 5.305 5.305 0 0 1 170.319 61.791 A 6.314 6.314 0 0 1 170.3 61.3 Q 170.3 59.979 170.814 58.325 A 17.179 17.179 0 0 1 171.15 57.35 A 16.344 16.344 0 0 1 172.095 55.315 Q 172.831 53.963 173.9 52.5 Q 174.894 51.055 176.704 48.834 A 122.25 122.25 0 0 1 177.1 48.35 Q 179.2 45.8 181.55 42.95 A 109.282 109.282 0 0 0 183.611 40.377 Q 184.561 39.15 185.372 38.021 A 65.623 65.623 0 0 0 185.6 37.7 A 0.089 0.089 0 0 1 185.623 37.646 Q 185.673 37.582 185.836 37.503 A 2.45 2.45 0 0 1 185.95 37.45 Q 186.235 37.328 186.354 37.306 A 0.254 0.254 0 0 1 186.4 37.3 Z M 380.8 74.6 Q 374.1 74.6 367.9 72.55 A 30.363 30.363 0 0 1 363.034 70.484 Q 360.293 69.009 358.267 67.062 A 18.779 18.779 0 0 1 358 66.8 A 1.045 1.045 0 0 1 357.782 66.492 A 0.94 0.94 0 0 1 357.7 66.1 A 0.806 0.806 0 0 1 357.912 65.559 Q 358.014 65.442 358.164 65.337 A 1.991 1.991 0 0 1 358.3 65.25 A 1.18 1.18 0 0 1 358.498 65.157 Q 358.976 64.987 359.386 65.386 A 1.467 1.467 0 0 1 359.4 65.4 A 20.487 20.487 0 0 0 363.901 68.67 Q 365.978 69.803 368.488 70.646 A 34.227 34.227 0 0 0 368.65 70.7 Q 374.4 72.6 380.6 72.6 Q 386.4 72.6 391.95 70.85 A 27.282 27.282 0 0 0 400.523 66.424 A 25.967 25.967 0 0 0 401.65 65.5 A 18.409 18.409 0 0 0 407.078 57.251 A 22.488 22.488 0 0 0 407.4 56.2 Q 408.1 54 408.1 51.7 A 11.39 11.39 0 0 0 407.498 47.911 A 9.559 9.559 0 0 0 404.15 43.4 Q 400.2 40.4 393.2 39.5 A 1.63 1.63 0 0 1 392.817 39.368 Q 392.375 39.144 392.311 38.668 A 1.263 1.263 0 0 1 392.3 38.5 Q 392.3 37.386 393.335 37.479 A 2.206 2.206 0 0 1 393.5 37.5 Q 400.25 38.332 404.734 41.387 A 18.672 18.672 0 0 1 405.45 41.9 A 11.212 11.212 0 0 1 410.028 50.092 A 15.28 15.28 0 0 1 410.1 51.6 Q 410.1 52.8 409.9 54.1 A 21.12 21.12 0 0 1 409.509 56.021 A 24.623 24.623 0 0 1 409.3 56.8 A 22.723 22.723 0 0 1 406.35 63.217 A 20.093 20.093 0 0 1 403.1 66.95 Q 398.7 70.9 392.85 72.75 Q 387 74.6 380.8 74.6 Z M 105.2 41.5 L 105.5 41.5 Q 106.294 41.5 106.458 42.13 A 1.473 1.473 0 0 1 106.5 42.5 A 0.911 0.911 0 0 1 106.414 42.906 Q 106.238 43.266 105.7 43.4 Q 99.5 45 94.95 49.05 Q 90.4 53.1 86.95 58.45 Q 83.5 63.8 80.5 69.4 Q 79.927 70.547 78.816 71.795 A 18.179 18.179 0 0 1 78.3 72.35 A 5.021 5.021 0 0 1 74.714 73.897 A 6.663 6.663 0 0 1 74.5 73.9 A 4.951 4.951 0 0 1 73.327 73.77 A 3.053 3.053 0 0 1 71.45 72.5 Q 70.5 71.1 70.5 69.5 A 7.082 7.082 0 0 1 70.627 68.216 Q 70.745 67.574 70.975 66.859 A 15.942 15.942 0 0 1 71.4 65.7 Q 72.3 63.5 73.45 61.35 Q 74.593 59.213 75.292 57.718 A 42.696 42.696 0 0 0 75.3 57.7 A 1.297 1.297 0 0 1 75.511 57.39 A 0.904 0.904 0 0 1 76.2 57.1 A 0.998 0.998 0 0 1 76.925 57.409 A 1.468 1.468 0 0 1 77.05 57.55 Q 77.389 57.986 77.118 58.563 A 1.699 1.699 0 0 1 77.1 58.6 A 105.731 105.731 0 0 1 76.769 59.256 Q 76.225 60.325 75.4 61.9 Q 74.3 64 73.4 66.1 A 16.566 16.566 0 0 0 72.965 67.218 Q 72.567 68.371 72.51 69.222 A 4.135 4.135 0 0 0 72.5 69.5 A 4.208 4.208 0 0 0 72.586 70.391 Q 72.914 71.9 74.5 71.9 A 3.32 3.32 0 0 0 76.35 71.31 Q 76.888 70.955 77.406 70.387 A 9.394 9.394 0 0 0 78.25 69.3 A 61.316 61.316 0 0 0 79.626 67.153 Q 80.226 66.177 80.869 65.064 A 127.624 127.624 0 0 0 82.2 62.7 A 85.49 85.49 0 0 1 85.263 57.583 A 105.177 105.177 0 0 1 87.4 54.4 A 38.218 38.218 0 0 1 94.433 46.82 A 42.482 42.482 0 0 1 94.7 46.6 A 25.228 25.228 0 0 1 101.336 42.755 A 32.045 32.045 0 0 1 105.2 41.5 Z M 271.3 41.3 L 271.2 41.3 Q 270.407 41.3 270.243 40.671 A 1.473 1.473 0 0 1 270.2 40.3 A 1.619 1.619 0 0 1 270.24 39.923 Q 270.362 39.418 270.852 39.322 A 1.301 1.301 0 0 1 271.1 39.3 A 23.574 23.574 0 0 1 272.248 39.186 A 27.844 27.844 0 0 1 272.8 39.15 Q 273.7 39.1 274.5 39.1 A 22.864 22.864 0 0 1 278.432 39.425 A 18.19 18.19 0 0 1 281.55 40.25 A 5.7 5.7 0 0 1 283.108 41.086 Q 284.526 42.19 284.681 44.115 A 6.043 6.043 0 0 1 284.7 44.6 A 6.886 6.886 0 0 1 284.451 46.377 Q 284.11 47.655 283.3 49.1 Q 281.5 52.5 279.15 55.45 Q 276.8 58.4 275.3 61.9 Q 275.2 62.2 275.15 62.5 Q 275.1 62.8 275.1 63.1 A 3.29 3.29 0 0 0 275.16 63.751 Q 275.319 64.537 275.9 64.9 Q 276.4 65.2 277 65.2 A 4 4 0 0 0 278.108 65.029 Q 279.239 64.702 280.65 63.75 A 34.908 34.908 0 0 0 283.101 61.929 A 44.404 44.404 0 0 0 285.05 60.25 Q 287.3 58.2 289.1 56.35 A 84.978 84.978 0 0 0 289.931 55.485 Q 291.075 54.275 291.6 53.6 A 1.236 1.236 0 0 1 291.798 53.389 A 0.769 0.769 0 0 1 292.3 53.2 A 0.919 0.919 0 0 1 292.852 53.389 Q 292.987 53.488 293.114 53.639 A 2.089 2.089 0 0 1 293.2 53.75 A 1.007 1.007 0 0 1 293.321 53.965 Q 293.503 54.416 293.1 54.9 Q 292 56.3 289 59.25 Q 286 62.2 282.8 64.7 A 16.478 16.478 0 0 1 280.953 65.964 Q 279.961 66.541 279.034 66.849 A 6.452 6.452 0 0 1 277 67.2 A 4.691 4.691 0 0 1 275.975 67.093 A 3.456 3.456 0 0 1 274.8 66.6 A 3.692 3.692 0 0 1 273.601 65.386 Q 273.179 64.673 273.112 63.749 A 4.89 4.89 0 0 1 273.1 63.4 Q 273.1 61.484 274.201 59.302 A 14.798 14.798 0 0 1 274.55 58.65 Q 276 56.1 277.75 53.85 Q 279.5 51.6 280.2 50.3 L 281.8 47.7 Q 282.6 46.4 282.6 44.9 A 2.848 2.848 0 0 0 282.433 43.959 A 3.996 3.996 0 0 0 282.1 43.25 A 2.377 2.377 0 0 0 281.613 42.677 Q 281.115 42.24 280.271 41.865 A 9.26 9.26 0 0 0 280 41.75 A 6.497 6.497 0 0 0 278.95 41.436 Q 277.805 41.186 276.114 41.122 A 32.36 32.36 0 0 0 274.9 41.1 Q 274.299 41.1 273.549 41.174 A 20.195 20.195 0 0 0 273.3 41.2 Q 272.4 41.3 271.3 41.3 Z M 272.1 74.6 Q 268.7 74.6 266.15 72.9 A 5.428 5.428 0 0 1 263.915 69.728 Q 263.6 68.606 263.6 67.2 Q 263.6 64.425 264.954 61.161 A 25.02 25.02 0 0 1 265.4 60.15 Q 267.2 56.3 269.6 52.65 A 205.906 205.906 0 0 1 271.33 50.06 Q 272.713 48.025 273.9 46.4 A 1.004 1.004 0 0 1 274.219 46.116 Q 274.417 46.008 274.667 46.001 A 1.225 1.225 0 0 1 274.7 46 A 0.994 0.994 0 0 1 275.3 46.205 Q 275.437 46.306 275.564 46.456 A 2.03 2.03 0 0 1 275.6 46.5 A 0.877 0.877 0 0 1 275.721 46.697 Q 275.877 47.054 275.606 47.459 A 1.676 1.676 0 0 1 275.5 47.6 Q 274.331 49.25 272.856 51.42 A 417.752 417.752 0 0 0 271.45 53.5 Q 269.1 57 267.35 60.65 A 21.574 21.574 0 0 0 266.318 63.177 Q 265.6 65.342 265.6 67.2 A 7.009 7.009 0 0 0 265.77 68.791 Q 266.028 69.899 266.68 70.685 A 4.173 4.173 0 0 0 267.25 71.25 A 5.658 5.658 0 0 0 269.39 72.321 Q 270.224 72.546 271.212 72.59 A 10.999 10.999 0 0 0 271.7 72.6 A 15.969 15.969 0 0 0 275.432 72.133 Q 277.038 71.747 278.753 71.042 A 28.299 28.299 0 0 0 279.55 70.7 A 21.159 21.159 0 0 0 282.789 68.919 Q 284.585 67.703 285.845 66.212 A 12.874 12.874 0 0 0 286.1 65.9 A 1.004 1.004 0 0 1 286.419 65.616 Q 286.617 65.508 286.867 65.501 A 1.225 1.225 0 0 1 286.9 65.5 A 0.919 0.919 0 0 1 287.452 65.689 Q 287.587 65.788 287.714 65.939 A 2.089 2.089 0 0 1 287.8 66.05 Q 288.175 66.566 287.76 67.037 A 1.374 1.374 0 0 1 287.7 67.1 A 19.677 19.677 0 0 1 283.543 70.769 A 25.36 25.36 0 0 1 280.6 72.45 A 22.586 22.586 0 0 1 276.541 73.993 A 17.101 17.101 0 0 1 272.1 74.6 Z M 439.708 55.798 A 1.153 1.153 0 0 0 440.2 55.9 A 0.769 0.769 0 0 0 440.703 55.711 A 1.236 1.236 0 0 0 440.9 55.5 Q 442.5 53.2 443.4 50.6 A 17.701 17.701 0 0 0 443.751 49.468 A 15.033 15.033 0 0 0 444.3 45.5 A 10.788 10.788 0 0 0 444.296 45.184 A 8.442 8.442 0 0 0 442.2 39.7 A 6.1 6.1 0 0 0 439.924 38.107 Q 438 37.3 435.1 37.3 Q 431.1 37.3 427.45 39.5 A 28.412 28.412 0 0 0 424.083 41.892 A 36.44 36.44 0 0 0 420.4 45.4 Q 417 49.1 413.6 53.6 A 1.422 1.422 0 0 0 413.474 53.831 Q 413.325 54.18 413.43 54.529 A 1.258 1.258 0 0 0 413.55 54.8 A 1.991 1.991 0 0 0 413.637 54.936 Q 413.742 55.087 413.859 55.189 A 0.806 0.806 0 0 0 414.4 55.4 A 0.629 0.629 0 0 0 414.599 55.367 Q 414.8 55.301 415 55.1 A 122.607 122.607 0 0 1 415.701 54.193 Q 418.104 51.11 420.455 48.51 A 72.531 72.531 0 0 1 425.15 43.75 Q 427.239 41.831 429.371 40.721 A 12.72 12.72 0 0 1 435.3 39.2 A 11.936 11.936 0 0 1 436.24 39.236 Q 437.314 39.321 438.197 39.607 A 5.503 5.503 0 0 1 440.55 41.05 A 6.151 6.151 0 0 1 442 43.579 A 7.85 7.85 0 0 1 442.3 45.8 A 11.464 11.464 0 0 1 442.227 47.089 Q 441.831 50.588 439.3 54.3 A 1.707 1.707 0 0 0 439.25 54.38 Q 438.924 54.934 439.25 55.4 A 1.459 1.459 0 0 0 439.293 55.458 Q 439.471 55.687 439.708 55.798 Z M 97.982 73.704 A 16.04 16.04 0 0 0 101 74 Q 104.7 74 108 72.6 Q 111.3 71.2 114.1 69.1 Q 114.316 68.939 114.415 68.719 A 1.004 1.004 0 0 0 114.5 68.3 A 1.473 1.473 0 0 0 114.458 67.93 Q 114.294 67.3 113.5 67.3 Q 113.1 67.3 112.9 67.5 A 23.675 23.675 0 0 1 112.104 68.079 A 25.904 25.904 0 0 1 107.3 70.7 Q 104.2 72 101 72 Q 97.9 72 95.85 70.9 A 3.686 3.686 0 0 1 93.962 68.389 A 6.361 6.361 0 0 1 93.8 66.9 A 10.301 10.301 0 0 1 93.876 65.676 Q 94.142 63.451 95.35 60.8 A 44.325 44.325 0 0 1 95.547 60.374 A 48.178 48.178 0 0 1 99.1 54.1 A 79.149 79.149 0 0 1 100.115 52.614 Q 101.746 50.285 103.2 48.6 A 1.382 1.382 0 0 0 103.22 48.58 Q 103.612 48.172 103.408 47.697 A 1.232 1.232 0 0 0 103.3 47.5 Q 102.9 46.9 102.4 46.9 A 1.225 1.225 0 0 0 102.367 46.901 Q 102.117 46.908 101.919 47.016 A 1.004 1.004 0 0 0 101.6 47.3 Q 99.8 49.5 97.5 52.9 Q 95.2 56.3 93.5 60 A 24.185 24.185 0 0 0 93.301 60.446 Q 91.8 63.894 91.8 66.9 A 10.568 10.568 0 0 0 91.826 67.653 Q 91.893 68.585 92.13 69.358 A 5.015 5.015 0 0 0 93.25 71.35 Q 94.7 72.9 96.85 73.45 A 18.913 18.913 0 0 0 97.982 73.704 Z M 420.814 68.113 A 4.866 4.866 0 0 0 422.2 68.3 A 7.614 7.614 0 0 0 424.304 67.999 A 9.496 9.496 0 0 0 426.4 67.1 Q 428.5 65.9 430.2 64.15 Q 431.9 62.4 432.8 60.9 Q 433.113 60.431 432.937 60.053 A 0.847 0.847 0 0 0 432.8 59.85 A 1.619 1.619 0 0 0 432.567 59.633 A 1.084 1.084 0 0 0 431.9 59.4 A 0.832 0.832 0 0 0 431.307 59.637 A 1.238 1.238 0 0 0 431.1 59.9 A 8.22 8.22 0 0 1 430.708 60.551 Q 430.364 61.068 429.903 61.615 A 17.546 17.546 0 0 1 428.9 62.7 Q 427.4 64.2 425.6 65.25 A 10.236 10.236 0 0 1 425.237 65.453 Q 423.638 66.3 422.2 66.3 Q 421.675 66.3 421.277 66.174 A 1.632 1.632 0 0 1 420.3 65.4 Q 420.003 64.866 419.883 64.19 A 5.634 5.634 0 0 1 419.8 63.2 Q 419.8 61.471 420.518 59.474 A 18.74 18.74 0 0 1 421.55 57.15 Q 423.3 53.8 425.9 50.8 A 33.528 33.528 0 0 1 428.204 48.386 A 25.814 25.814 0 0 1 431.25 45.9 Q 433.738 44.181 435.694 44.181 A 4.279 4.279 0 0 1 436.1 44.2 Q 436.6 44.3 436.9 43.95 A 1.451 1.451 0 0 0 437.028 43.778 A 1.069 1.069 0 0 0 437.2 43.2 A 1.386 1.386 0 0 0 437.2 43.16 Q 437.172 42.2 435.8 42.2 Q 433.3 42.2 430.2 44.3 A 27.872 27.872 0 0 0 427.536 46.358 A 34.58 34.58 0 0 0 424.25 49.65 Q 421.4 52.9 419.6 56.5 Q 418.644 58.413 418.196 60.156 A 11.821 11.821 0 0 0 417.8 63.1 Q 417.8 63.999 417.976 64.767 A 5.142 5.142 0 0 0 418.95 66.85 A 3.65 3.65 0 0 0 420.814 68.113 Z M 188.9 33.5 L 196 25.8 A 1.684 1.684 0 0 0 196.483 24.79 A 2.314 2.314 0 0 0 196.5 24.5 Q 196.5 23.6 195.65 22.9 Q 194.8 22.2 193.7 22.2 Q 192.885 22.2 192.003 22.799 A 5.624 5.624 0 0 0 191.6 23.1 Q 190.4 24.1 187.9 26.9 A 161.289 161.289 0 0 0 185.927 29.155 Q 185.064 30.159 184.132 31.27 A 287.381 287.381 0 0 0 182.2 33.6 Q 182.2 33.7 181.9 33.85 Q 181.654 33.974 181.542 33.995 A 0.221 0.221 0 0 1 181.5 34 L 173.6 34 Q 172.807 34 172.643 33.371 A 1.473 1.473 0 0 1 172.6 33 Q 172.6 32.207 173.23 32.043 A 1.473 1.473 0 0 1 173.6 32 L 181 32 Q 184 28.2 186.5 25.45 A 149.712 149.712 0 0 1 187.669 24.178 Q 189.3 22.425 190.2 21.6 Q 191.7 20.2 193.7 20.2 A 5.311 5.311 0 0 1 195.577 20.523 A 4.801 4.801 0 0 1 197.1 21.45 A 4.494 4.494 0 0 1 198 22.529 A 3.641 3.641 0 0 1 198.5 24.4 Q 198.5 25.9 197.5 27 Q 197.3 27.3 196.15 28.6 A 100.851 100.851 0 0 1 195.224 29.631 Q 194.812 30.085 194.356 30.577 A 179.955 179.955 0 0 1 193.4 31.6 A 127.544 127.544 0 0 0 191.113 34.094 A 110.723 110.723 0 0 0 190.4 34.9 A 1.045 1.045 0 0 1 190.092 35.118 A 0.94 0.94 0 0 1 189.7 35.2 A 1.039 1.039 0 0 1 188.884 34.83 A 1.474 1.474 0 0 1 188.75 34.65 Q 188.432 34.151 188.815 33.61 A 1.773 1.773 0 0 1 188.9 33.5 Z M 216.5 33.5 L 223.6 25.8 A 1.684 1.684 0 0 0 224.083 24.79 A 2.314 2.314 0 0 0 224.1 24.5 Q 224.1 23.6 223.25 22.9 Q 222.4 22.2 221.3 22.2 Q 220.485 22.2 219.603 22.799 A 5.624 5.624 0 0 0 219.2 23.1 Q 218 24.1 215.5 26.9 A 161.289 161.289 0 0 0 213.527 29.155 Q 212.664 30.159 211.732 31.27 A 287.381 287.381 0 0 0 209.8 33.6 Q 209.8 33.7 209.5 33.85 Q 209.254 33.974 209.142 33.995 A 0.221 0.221 0 0 1 209.1 34 L 201.2 34 Q 200.407 34 200.243 33.371 A 1.473 1.473 0 0 1 200.2 33 Q 200.2 32.207 200.83 32.043 A 1.473 1.473 0 0 1 201.2 32 L 208.6 32 Q 211.6 28.2 214.1 25.45 A 149.712 149.712 0 0 1 215.269 24.178 Q 216.9 22.425 217.8 21.6 Q 219.3 20.2 221.3 20.2 A 5.311 5.311 0 0 1 223.177 20.523 A 4.801 4.801 0 0 1 224.7 21.45 A 4.494 4.494 0 0 1 225.6 22.529 A 3.641 3.641 0 0 1 226.1 24.4 Q 226.1 25.9 225.1 27 Q 224.9 27.3 223.75 28.6 A 100.851 100.851 0 0 1 222.824 29.631 Q 222.412 30.085 221.956 30.577 A 179.955 179.955 0 0 1 221 31.6 A 127.544 127.544 0 0 0 218.713 34.094 A 110.723 110.723 0 0 0 218 34.9 A 1.045 1.045 0 0 1 217.692 35.118 A 0.94 0.94 0 0 1 217.3 35.2 A 1.039 1.039 0 0 1 216.484 34.83 A 1.474 1.474 0 0 1 216.35 34.65 Q 216.032 34.151 216.415 33.61 A 1.773 1.773 0 0 1 216.5 33.5 Z M 472.1 45.6 L 480.2 36 A 3.378 3.378 0 0 1 480.897 35.3 A 2.88 2.88 0 0 1 481.65 34.9 A 5.336 5.336 0 0 1 482.642 34.65 A 4.475 4.475 0 0 1 483.3 34.6 Q 485 34.6 486.4 35.65 A 3.815 3.815 0 0 1 487.253 36.514 A 3.048 3.048 0 0 1 487.8 38.3 Q 487.8 39.2 487.2 40.1 Q 484.4 43.9 481.1 47.5 Q 477.8 51.1 474.6 54.6 A 1.045 1.045 0 0 1 474.292 54.818 A 0.94 0.94 0 0 1 473.9 54.9 A 0.863 0.863 0 0 1 473.309 54.663 Q 473.171 54.539 473.05 54.35 Q 472.732 53.851 473.115 53.31 A 1.773 1.773 0 0 1 473.2 53.2 Q 476.3 49.7 479.55 46.2 Q 482.8 42.7 485.5 38.9 A 5.188 5.188 0 0 0 485.617 38.696 Q 485.8 38.356 485.8 38.2 A 1.114 1.114 0 0 0 485.361 37.304 A 1.897 1.897 0 0 0 485.05 37.1 A 3.328 3.328 0 0 0 483.897 36.725 A 3.147 3.147 0 0 0 483.5 36.7 A 3.275 3.275 0 0 0 482.809 36.769 Q 482.374 36.863 482.049 37.086 A 1.81 1.81 0 0 0 481.7 37.4 L 478.7 40.9 Q 476.9 43 475.45 44.7 A 253.682 253.682 0 0 0 474.947 45.292 Q 473.944 46.475 473.7 46.8 A 1.004 1.004 0 0 1 473.381 47.084 Q 473.183 47.193 472.934 47.2 A 1.225 1.225 0 0 1 472.9 47.2 A 0.863 0.863 0 0 1 472.309 46.963 Q 472.171 46.839 472.05 46.65 A 1.165 1.165 0 0 1 471.944 46.444 Q 471.776 46.005 472.1 45.6 Z M 460.8 55.4 L 460.8 55.2 A 1.156 1.156 0 0 1 460.855 54.828 Q 461.03 54.313 461.764 54.301 A 2.163 2.163 0 0 1 461.8 54.3 Q 462.621 54.3 462.776 54.965 A 1.301 1.301 0 0 1 462.8 55.1 Q 463.529 59.958 465.175 63.439 A 19.389 19.389 0 0 0 466 65 Q 468.087 68.538 470.791 70.389 A 12.096 12.096 0 0 0 471.35 70.75 A 14.481 14.481 0 0 0 473.741 71.931 Q 475.516 72.6 477.2 72.6 A 11.543 11.543 0 0 0 482.929 71.062 A 13.607 13.607 0 0 0 482.95 71.05 Q 485.216 69.773 486.226 68.666 A 4.477 4.477 0 0 0 486.6 68.2 A 1.236 1.236 0 0 1 486.798 67.989 A 0.769 0.769 0 0 1 487.3 67.8 A 1.208 1.208 0 0 1 488.21 68.197 A 1.638 1.638 0 0 1 488.3 68.3 A 0.877 0.877 0 0 1 488.421 68.497 Q 488.577 68.854 488.306 69.259 A 1.676 1.676 0 0 1 488.2 69.4 Q 487 71 483.85 72.8 Q 480.7 74.6 477.2 74.6 A 12.19 12.19 0 0 1 471.711 73.264 A 15.481 15.481 0 0 1 470.2 72.4 Q 466.8 70.2 464.25 65.95 A 23.29 23.29 0 0 1 462.116 61.198 Q 461.386 58.969 460.951 56.374 A 40.744 40.744 0 0 1 460.8 55.4 Z M 418.163 73.932 A 10.689 10.689 0 0 0 422 74.6 A 11.33 11.33 0 0 0 425.229 74.11 A 15.562 15.562 0 0 0 427.85 73.05 A 12.762 12.762 0 0 0 428.888 72.459 Q 430.205 71.626 431.475 70.4 A 23.69 23.69 0 0 0 433.7 67.9 Q 434.5 66.8 435.5 65.7 A 11.598 11.598 0 0 0 435.975 65.144 A 9.831 9.831 0 0 0 437.1 63.4 A 1.699 1.699 0 0 0 437.118 63.363 Q 437.389 62.786 437.05 62.35 A 1.468 1.468 0 0 0 436.925 62.209 A 0.998 0.998 0 0 0 436.2 61.9 Q 435.7 61.9 435.4 62.5 Q 435.1 63.1 434.3 64.05 Q 433.5 65 432.85 65.8 L 432.2 66.6 A 26.637 26.637 0 0 1 431.042 67.976 Q 429.021 70.212 427 71.3 Q 424.4 72.7 422.1 72.7 A 9.736 9.736 0 0 1 421.748 72.694 A 7.4 7.4 0 0 1 416.35 70.25 Q 414.1 67.8 414.3 65.2 Q 414.4 64.7 414.05 64.35 A 1.403 1.403 0 0 0 413.804 64.151 A 0.936 0.936 0 0 0 413.3 64 A 1.473 1.473 0 0 0 412.93 64.043 Q 412.3 64.207 412.3 65 Q 412.059 67.349 413.015 69.317 A 8.827 8.827 0 0 0 414.8 71.75 A 9.687 9.687 0 0 0 418.163 73.932 Z M 142.771 73.906 A 13.025 13.025 0 0 0 145.1 74.1 A 21.122 21.122 0 0 0 145.783 74.089 A 18.093 18.093 0 0 0 153.2 72.3 Q 156.9 70.5 160.1 68.1 Q 160.316 67.939 160.415 67.719 A 1.004 1.004 0 0 0 160.5 67.3 A 1.473 1.473 0 0 0 160.458 66.93 Q 160.294 66.3 159.5 66.3 Q 159.1 66.3 158.9 66.5 Q 155.8 68.8 152.35 70.45 Q 148.9 72.1 145.1 72.1 A 10.975 10.975 0 0 1 143.892 72.037 Q 141.419 71.763 140.2 70.3 A 7.647 7.647 0 0 1 140.063 70.131 A 6.054 6.054 0 0 1 138.7 66.3 Q 138.7 64.5 139.7 62.7 A 1.699 1.699 0 0 0 139.718 62.663 Q 139.989 62.086 139.65 61.65 A 1.468 1.468 0 0 0 139.525 61.509 A 0.998 0.998 0 0 0 138.8 61.2 Q 138.2 61.2 137.9 61.7 Q 136.7 63.9 136.7 66.3 A 8.082 8.082 0 0 0 137.143 68.962 A 9.083 9.083 0 0 0 138.65 71.65 Q 140.052 73.411 142.771 73.906 Z M 450.822 75.62 A 4.929 4.929 0 0 0 453.3 76.3 A 3.878 3.878 0 0 0 454.036 76.228 A 4.78 4.78 0 0 0 454.95 75.95 Q 455.8 75.6 456.4 74.9 Q 458.3 72.6 459.9 70.65 A 1495.663 1495.663 0 0 0 460.101 70.406 Q 461.24 69.016 461.708 68.439 A 53.835 53.835 0 0 0 461.9 68.2 Q 462.317 67.784 462.144 67.333 A 1.025 1.025 0 0 0 462.05 67.15 Q 461.93 66.961 461.792 66.837 A 0.863 0.863 0 0 0 461.2 66.6 A 1.225 1.225 0 0 0 461.167 66.601 Q 460.917 66.608 460.719 66.716 A 1.004 1.004 0 0 0 460.4 67 A 34.304 34.304 0 0 1 460.344 67.071 Q 459.987 67.514 458.958 68.77 A 1288.52 1288.52 0 0 1 458.4 69.45 A 99.541 99.541 0 0 1 457.158 70.934 A 118.512 118.512 0 0 1 454.9 73.5 A 1.922 1.922 0 0 1 453.897 74.118 A 2.774 2.774 0 0 1 453.2 74.2 Q 452.3 74.2 451.6 73.8 A 1.798 1.798 0 0 1 451.336 73.618 A 1.149 1.149 0 0 1 450.9 72.7 Q 450.9 72.384 450.98 72.188 A 0.56 0.56 0 0 1 451.1 72 A 32.915 32.915 0 0 1 451.635 71.275 Q 452.616 69.979 454.3 67.95 Q 456.5 65.3 459.3 62.2 Q 459.703 61.716 459.521 61.265 A 1.007 1.007 0 0 0 459.4 61.05 A 1.709 1.709 0 0 0 459.27 60.892 A 1.147 1.147 0 0 0 458.4 60.5 A 0.94 0.94 0 0 0 458.009 60.582 A 1.045 1.045 0 0 0 457.7 60.8 Q 455 64 452.75 66.7 A 191.818 191.818 0 0 0 452.71 66.748 Q 450.491 69.413 449.5 70.8 Q 448.8 71.6 448.8 72.7 A 2.798 2.798 0 0 0 449.455 74.513 A 4.165 4.165 0 0 0 450.25 75.25 A 6.323 6.323 0 0 0 450.822 75.62 Z M 226.142 72.931 A 18.237 18.237 0 0 0 230.6 73.5 Q 234.7 73.5 238.55 72 Q 242.4 70.5 245.6 68.1 Q 245.816 67.939 245.915 67.719 A 1.004 1.004 0 0 0 246 67.3 A 1.473 1.473 0 0 0 245.958 66.93 Q 245.794 66.3 245 66.3 Q 244.6 66.3 244.4 66.5 Q 241.4 68.7 237.85 70.1 Q 234.3 71.5 230.6 71.5 Q 229.788 71.5 228.799 71.364 A 21.195 21.195 0 0 1 227.55 71.15 A 15.91 15.91 0 0 1 227.063 71.045 A 14.042 14.042 0 0 1 224.3 70.1 Q 223.113 69.538 222.374 68.897 A 4.193 4.193 0 0 1 221.65 68.1 A 3.662 3.662 0 0 1 221.274 67.384 Q 221.074 66.88 220.981 66.261 A 7.824 7.824 0 0 1 220.9 65.1 A 2.37 2.37 0 0 0 220.9 65.069 Q 220.889 64.254 220.313 64.06 A 1.297 1.297 0 0 0 219.9 64 A 1.463 1.463 0 0 0 219.627 64.024 Q 219.083 64.128 218.946 64.678 A 1.753 1.753 0 0 0 218.9 65.1 A 8.875 8.875 0 0 0 219.039 66.702 A 6.187 6.187 0 0 0 220.75 70.05 A 10.047 10.047 0 0 0 222.123 71.198 A 10.994 10.994 0 0 0 225.3 72.7 A 20.915 20.915 0 0 0 226.142 72.931 Z M 170.893 73.384 A 10.968 10.968 0 0 0 173.6 73.7 Q 175.381 73.7 177.392 73.207 A 23.941 23.941 0 0 0 180.25 72.3 A 26.392 26.392 0 0 0 183.712 70.664 A 34.195 34.195 0 0 0 187.6 68.1 Q 187.816 67.939 187.915 67.719 A 1.004 1.004 0 0 0 188 67.3 A 1.473 1.473 0 0 0 187.958 66.93 Q 187.794 66.3 187 66.3 Q 186.6 66.3 186.4 66.5 A 43.925 43.925 0 0 1 185.081 67.461 Q 182.131 69.526 179.55 70.55 A 23.126 23.126 0 0 1 178.185 71.045 Q 177.078 71.406 176.074 71.594 A 11.261 11.261 0 0 1 174 71.8 Q 172.672 71.8 171.595 71.503 A 5.597 5.597 0 0 1 168.85 69.85 A 6.363 6.363 0 0 1 167.676 67.988 Q 167.144 66.679 167.2 65.1 Q 167.233 64.937 167.218 64.801 A 0.616 0.616 0 0 0 166.95 64.35 A 1.548 1.548 0 0 0 166.895 64.312 A 1.251 1.251 0 0 0 166.2 64.1 A 2.163 2.163 0 0 0 166.164 64.101 Q 165.43 64.113 165.255 64.628 A 1.156 1.156 0 0 0 165.2 65 A 13.601 13.601 0 0 0 165.185 65.647 Q 165.185 69.377 167.35 71.45 A 7.805 7.805 0 0 0 170.893 73.384 Z M 198.493 73.384 A 10.968 10.968 0 0 0 201.2 73.7 Q 202.981 73.7 204.992 73.207 A 23.941 23.941 0 0 0 207.85 72.3 A 26.392 26.392 0 0 0 211.312 70.664 A 34.195 34.195 0 0 0 215.2 68.1 Q 215.416 67.939 215.515 67.719 A 1.004 1.004 0 0 0 215.6 67.3 A 1.473 1.473 0 0 0 215.558 66.93 Q 215.394 66.3 214.6 66.3 Q 214.2 66.3 214 66.5 A 43.925 43.925 0 0 1 212.681 67.461 Q 209.731 69.526 207.15 70.55 A 23.126 23.126 0 0 1 205.785 71.045 Q 204.678 71.406 203.674 71.594 A 11.261 11.261 0 0 1 201.6 71.8 Q 200.272 71.8 199.195 71.503 A 5.597 5.597 0 0 1 196.45 69.85 A 6.363 6.363 0 0 1 195.276 67.988 Q 194.744 66.679 194.8 65.1 Q 194.833 64.937 194.818 64.801 A 0.616 0.616 0 0 0 194.55 64.35 A 1.548 1.548 0 0 0 194.495 64.312 A 1.251 1.251 0 0 0 193.8 64.1 A 2.163 2.163 0 0 0 193.764 64.101 Q 193.03 64.113 192.855 64.628 A 1.156 1.156 0 0 0 192.8 65 A 13.601 13.601 0 0 0 192.785 65.647 Q 192.785 69.377 194.95 71.45 A 7.805 7.805 0 0 0 198.493 73.384 Z M 252.604 63.721 A 0.999 0.999 0 0 0 253.4 64.1 A 0.94 0.94 0 0 0 253.792 64.018 A 1.045 1.045 0 0 0 254.1 63.8 A 61.221 61.221 0 0 0 255.365 62.536 A 68.17 68.17 0 0 0 260.6 56.45 A 159.431 159.431 0 0 0 261.008 55.915 Q 262.421 54.053 263.64 52.331 A 97.026 97.026 0 0 0 265.9 49 A 89.548 89.548 0 0 0 266.217 48.508 Q 268.137 45.497 268.6 44.2 Q 268.8 43.6 268.5 43.2 Q 268.339 42.985 268.119 42.885 A 1.004 1.004 0 0 0 267.7 42.8 A 0.904 0.904 0 0 0 267.011 43.09 A 1.297 1.297 0 0 0 266.8 43.4 A 6.605 6.605 0 0 1 266.636 43.786 Q 266.18 44.777 265.067 46.563 A 83.879 83.879 0 0 1 264.15 48 A 89.067 89.067 0 0 1 263.861 48.441 Q 262.835 49.995 261.626 51.69 A 149.212 149.212 0 0 1 259 55.25 A 69.678 69.678 0 0 1 258.055 56.466 A 61.924 61.924 0 0 1 252.7 62.4 A 1.588 1.588 0 0 0 252.6 62.491 Q 252.212 62.875 252.364 63.316 A 1.045 1.045 0 0 0 252.45 63.5 A 1.574 1.574 0 0 0 252.604 63.721 Z M 377.333 35.468 A 1.084 1.084 0 0 0 378 35.7 A 1.186 1.186 0 0 0 378.224 35.68 Q 378.445 35.638 378.594 35.505 A 0.797 0.797 0 0 0 378.8 35.2 A 146.865 146.865 0 0 1 379.084 34.744 Q 380.327 32.752 382.25 29.8 Q 384.4 26.5 386.95 22.7 Q 389.5 18.9 391.7 15.5 Q 392.1 14.9 391.7 14.4 A 2.03 2.03 0 0 0 391.664 14.356 Q 391.537 14.206 391.4 14.105 A 0.994 0.994 0 0 0 390.8 13.9 A 0.832 0.832 0 0 0 390.207 14.137 A 1.238 1.238 0 0 0 390 14.4 Q 387.8 17.8 385.25 21.65 Q 382.7 25.5 380.55 28.8 A 511.551 511.551 0 0 0 380.106 29.483 Q 378.263 32.322 377.1 34.2 Q 376.787 34.67 376.964 35.047 A 0.847 0.847 0 0 0 377.1 35.25 A 1.619 1.619 0 0 0 377.333 35.468 Z M 126 74 Q 122.7 74 120.15 71.8 A 6.472 6.472 0 0 1 118.161 68.599 Q 117.712 67.034 117.8 65 A 1.156 1.156 0 0 1 117.855 64.628 Q 118.03 64.113 118.764 64.101 A 2.163 2.163 0 0 1 118.8 64.1 A 1.251 1.251 0 0 1 119.495 64.312 A 1.548 1.548 0 0 1 119.55 64.35 A 0.616 0.616 0 0 1 119.818 64.801 Q 119.833 64.937 119.8 65.1 Q 119.7 68.7 121.6 70.35 Q 123.5 72 126 72 A 8.928 8.928 0 0 0 129.125 71.42 A 10.784 10.784 0 0 0 130 71.05 Q 132 70.1 133.3 68.3 A 1.004 1.004 0 0 1 133.619 68.016 Q 133.817 67.908 134.067 67.901 A 1.225 1.225 0 0 1 134.1 67.9 A 0.994 0.994 0 0 1 134.7 68.105 Q 134.837 68.206 134.964 68.356 A 2.03 2.03 0 0 1 135 68.4 A 0.877 0.877 0 0 1 135.121 68.597 Q 135.277 68.954 135.006 69.359 A 1.676 1.676 0 0 1 134.9 69.5 Q 133.3 71.7 130.9 72.85 A 11.452 11.452 0 0 1 127.089 73.945 A 10.776 10.776 0 0 1 126 74 Z M 165.244 55.256 A 1.296 1.296 0 0 0 165.6 55.3 A 1.16 1.16 0 0 0 166.159 55.159 A 1.474 1.474 0 0 0 166.5 54.9 A 134.317 134.317 0 0 0 166.688 54.68 Q 169.51 51.357 172.8 47.05 Q 176.2 42.6 179.6 37.8 Q 179.924 37.395 179.756 36.957 A 1.165 1.165 0 0 0 179.65 36.75 A 1.474 1.474 0 0 0 179.516 36.57 A 1.039 1.039 0 0 0 178.7 36.2 A 0.769 0.769 0 0 0 178.198 36.389 A 1.236 1.236 0 0 0 178 36.6 A 298.388 298.388 0 0 1 177.788 36.9 A 274.492 274.492 0 0 1 171.2 45.8 A 542.317 542.317 0 0 1 169.153 48.433 Q 166.988 51.2 165.2 53.4 A 7.834 7.834 0 0 0 165.13 53.501 Q 164.816 53.955 164.731 54.225 A 0.598 0.598 0 0 0 164.7 54.4 A 1.326 1.326 0 0 0 164.739 54.734 Q 164.845 55.141 165.244 55.256 Z M 447.104 63.721 A 0.999 0.999 0 0 0 447.9 64.1 A 0.94 0.94 0 0 0 448.292 64.018 A 1.045 1.045 0 0 0 448.6 63.8 Q 453.7 58.8 456.9 54 Q 459.306 50.391 460.525 48.365 A 35.437 35.437 0 0 0 461.2 47.2 Q 461.513 46.731 461.337 46.353 A 0.847 0.847 0 0 0 461.2 46.15 A 1.619 1.619 0 0 0 460.967 45.933 A 1.084 1.084 0 0 0 460.3 45.7 Q 459.7 45.7 459.4 46.2 Q 458.3 48.2 455.25 52.9 Q 452.2 57.6 447.2 62.4 A 1.588 1.588 0 0 0 447.1 62.491 Q 446.712 62.875 446.864 63.316 A 1.045 1.045 0 0 0 446.95 63.5 A 1.574 1.574 0 0 0 447.104 63.721 Z" vector-effect="non-scaling-stroke"/></g></svg>